subject05_noload_free_trial03_ground_reaction
version=1
nRows=42
nColumns=19
inDegrees=no
endheader
time	ground_force_r_vx	ground_force_r_vy	ground_force_r_vz	ground_force_r_px	ground_force_r_py	ground_force_r_pz	ground_torque_r_x	ground_torque_r_y	ground_torque_r_z	ground_force_l_vx	ground_force_l_vy	ground_force_l_vz	ground_force_l_px	ground_force_l_py	ground_force_l_pz	ground_torque_l_x	ground_torque_l_y	ground_torque_l_z
0.577000	-218.975319	1115.296964	-44.396915	0.319551	0.000000	-0.193269	0.000000	-1.477069	0.000000	0.000000	0.000000	0.000000	2365.674188	0.000000	1714.870793	0.000000	0.000000	0.000000
0.577500	-218.540852	1116.469833	-44.493916	0.319706	0.000000	-0.193207	0.000000	-1.480262	0.000000	0.000000	0.000000	0.000000	2356.943599	0.000000	1708.537557	0.000000	0.000000	0.000000
0.578000	-218.100128	1117.625233	-44.585180	0.319861	0.000000	-0.193145	0.000000	-1.483159	0.000000	0.000000	0.000000	0.000000	2348.234535	0.000000	1702.219937	0.000000	0.000000	0.000000
0.578500	-217.653254	1118.762644	-44.670796	0.320014	0.000000	-0.193084	0.000000	-1.485758	0.000000	0.000000	0.000000	0.000000	2339.546968	0.000000	1695.917913	0.000000	0.000000	0.000000
0.579000	-217.200334	1119.881559	-44.750850	0.320167	0.000000	-0.193022	0.000000	-1.488059	0.000000	0.000000	0.000000	0.000000	2330.880871	0.000000	1689.631466	0.000000	0.000000	0.000000
0.579500	-216.741472	1120.981484	-44.825431	0.320318	0.000000	-0.192961	0.000000	-1.490061	0.000000	0.000000	0.000000	0.000000	2322.236219	0.000000	1683.360576	0.000000	0.000000	0.000000
0.580000	-216.276767	1122.061937	-44.894629	0.320469	0.000000	-0.192900	0.000000	-1.491765	0.000000	0.000000	0.000000	0.000000	2313.612984	0.000000	1677.105225	0.000000	0.000000	0.000000
0.580500	-215.806314	1123.122448	-44.958533	0.320620	0.000000	-0.192839	0.000000	-1.493171	0.000000	0.000000	0.000000	0.000000	2305.011141	0.000000	1670.865393	0.000000	0.000000	0.000000
0.581000	-215.330208	1124.162557	-45.017234	0.320769	0.000000	-0.192778	0.000000	-1.494280	0.000000	0.000000	0.000000	0.000000	2296.430662	0.000000	1664.641061	0.000000	0.000000	0.000000
0.581500	-214.848541	1125.181815	-45.070826	0.320918	0.000000	-0.192718	0.000000	-1.495093	0.000000	0.000000	0.000000	0.000000	2287.871520	0.000000	1658.432209	0.000000	0.000000	0.000000
0.582000	-214.361403	1126.179789	-45.119401	0.321066	0.000000	-0.192657	0.000000	-1.495613	0.000000	0.000000	0.000000	0.000000	2279.333690	0.000000	1652.238818	0.000000	0.000000	0.000000
0.582500	-213.868879	1127.156059	-45.163055	0.321213	0.000000	-0.192596	0.000000	-1.495841	0.000000	0.000000	0.000000	0.000000	2270.817145	0.000000	1646.060869	0.000000	0.000000	0.000000
0.583000	-213.371056	1128.110217	-45.201883	0.321360	0.000000	-0.192536	0.000000	-1.495779	0.000000	0.000000	0.000000	0.000000	2262.321858	0.000000	1639.898343	0.000000	0.000000	0.000000
0.583500	-212.868015	1129.041873	-45.235983	0.321507	0.000000	-0.192476	0.000000	-1.495429	0.000000	0.000000	0.000000	0.000000	2253.847802	0.000000	1633.751221	0.000000	0.000000	0.000000
0.584000	-212.359836	1129.950650	-45.265456	0.321652	0.000000	-0.192415	0.000000	-1.494793	0.000000	0.000000	0.000000	0.000000	2245.394952	0.000000	1627.619482	0.000000	0.000000	0.000000
0.584500	-211.846600	1130.836185	-45.290404	0.321798	0.000000	-0.192355	0.000000	-1.493874	0.000000	0.000000	0.000000	0.000000	2236.963280	0.000000	1621.503108	0.000000	0.000000	0.000000
0.585000	-211.328386	1131.698130	-45.310931	0.321942	0.000000	-0.192295	0.000000	-1.492675	0.000000	0.000000	0.000000	0.000000	2228.552759	0.000000	1615.402079	0.000000	0.000000	0.000000
0.585500	-210.805271	1132.536151	-45.327145	0.322087	0.000000	-0.192234	0.000000	-1.491198	0.000000	0.000000	0.000000	0.000000	2220.163364	0.000000	1609.316377	0.000000	0.000000	0.000000
0.586000	-210.277334	1133.349931	-45.339157	0.322230	0.000000	-0.192174	0.000000	-1.489447	0.000000	0.000000	0.000000	0.000000	2211.795068	0.000000	1603.245982	0.000000	0.000000	0.000000
0.586500	-209.744656	1134.139165	-45.347082	0.322374	0.000000	-0.192114	0.000000	-1.487423	0.000000	0.000000	0.000000	0.000000	2203.447844	0.000000	1597.190874	0.000000	0.000000	0.000000
0.587000	-209.207314	1134.903566	-45.351038	0.322517	0.000000	-0.192054	0.000000	-1.485133	0.000000	0.000000	0.000000	0.000000	2195.121665	0.000000	1591.151035	0.000000	0.000000	0.000000
0.587500	-208.665390	1135.642859	-45.351147	0.322659	0.000000	-0.191993	0.000000	-1.482578	0.000000	0.000000	0.000000	0.000000	2186.816506	0.000000	1585.126445	0.000000	0.000000	0.000000
0.588000	-208.118966	1136.356782	-45.347534	0.322802	0.000000	-0.191933	0.000000	-1.479763	0.000000	0.000000	0.000000	0.000000	2178.532339	0.000000	1579.117084	0.000000	0.000000	0.000000
0.588500	-207.568125	1137.045093	-45.340326	0.322944	0.000000	-0.191873	0.000000	-1.476692	0.000000	0.000000	0.000000	0.000000	2170.269137	0.000000	1573.122935	0.000000	0.000000	0.000000
0.589000	-207.012950	1137.707560	-45.329653	0.323085	0.000000	-0.191812	0.000000	-1.473370	0.000000	0.000000	0.000000	0.000000	2162.026875	0.000000	1567.143976	0.000000	0.000000	0.000000
0.589500	-206.453527	1138.343972	-45.315646	0.323227	0.000000	-0.191752	0.000000	-1.469800	0.000000	0.000000	0.000000	0.000000	2153.805526	0.000000	1561.180190	0.000000	0.000000	0.000000
0.590000	-205.889944	1138.954127	-45.298440	0.323368	0.000000	-0.191691	0.000000	-1.465987	0.000000	0.000000	0.000000	0.000000	2145.605063	0.000000	1555.231556	0.000000	0.000000	0.000000
0.590500	-205.322287	1139.537843	-45.278167	0.323509	0.000000	-0.191631	0.000000	-1.461935	0.000000	0.000000	0.000000	0.000000	2137.425459	0.000000	1549.298055	0.000000	0.000000	0.000000
0.591000	-204.750646	1140.094952	-45.254964	0.323650	0.000000	-0.191570	0.000000	-1.457649	0.000000	0.000000	0.000000	0.000000	2129.266688	0.000000	1543.379669	0.000000	0.000000	0.000000
0.591500	-204.175109	1140.625302	-45.228964	0.323791	0.000000	-0.191509	0.000000	-1.453134	0.000000	0.000000	0.000000	0.000000	2121.128724	0.000000	1537.476377	0.000000	0.000000	0.000000
0.592000	-203.595766	1141.128758	-45.200302	0.323931	0.000000	-0.191448	0.000000	-1.448395	0.000000	0.000000	0.000000	0.000000	2113.011540	0.000000	1531.588161	0.000000	0.000000	0.000000
0.592500	-203.012708	1141.605199	-45.169110	0.324072	0.000000	-0.191387	0.000000	-1.443437	0.000000	0.000000	0.000000	0.000000	2104.915109	0.000000	1525.715001	0.000000	0.000000	0.000000
0.593000	-202.426025	1142.054519	-45.135524	0.324212	0.000000	-0.191326	0.000000	-1.438267	0.000000	0.000000	0.000000	0.000000	2096.839404	0.000000	1519.856879	0.000000	0.000000	0.000000
0.593500	-201.835810	1142.476625	-45.099677	0.324353	0.000000	-0.191265	0.000000	-1.432890	0.000000	0.000000	0.000000	0.000000	2088.784400	0.000000	1514.013774	0.000000	0.000000	0.000000
0.594000	-201.242158	1142.871436	-45.061701	0.324493	0.000000	-0.191203	0.000000	-1.427314	0.000000	0.000000	0.000000	0.000000	2080.750069	0.000000	1508.185667	0.000000	0.000000	0.000000
0.594500	-200.645161	1143.238886	-45.021731	0.324633	0.000000	-0.191142	0.000000	-1.421545	0.000000	0.000000	0.000000	0.000000	2072.736385	0.000000	1502.372540	0.000000	0.000000	0.000000
0.595000	-200.044919	1143.578919	-44.979897	0.324774	0.000000	-0.191080	0.000000	-1.415591	0.000000	0.000000	0.000000	0.000000	2064.743321	0.000000	1496.574372	0.000000	0.000000	0.000000
0.595500	-199.441529	1143.891495	-44.936330	0.324914	0.000000	-0.191018	0.000000	-1.409458	0.000000	0.000000	0.000000	0.000000	2056.770852	0.000000	1490.791145	0.000000	0.000000	0.000000
0.596000	-198.835091	1144.176588	-44.891157	0.325055	0.000000	-0.190956	0.000000	-1.403154	0.000000	0.000000	0.000000	0.000000	2048.818949	0.000000	1485.022840	0.000000	0.000000	0.000000
0.596500	-198.225709	1144.434181	-44.844505	0.325195	0.000000	-0.190894	0.000000	-1.396686	0.000000	0.000000	0.000000	0.000000	2040.887587	0.000000	1479.269436	0.000000	0.000000	0.000000
0.597000	-197.613484	1144.664273	-44.796496	0.325336	0.000000	-0.190831	0.000000	-1.390060	0.000000	0.000000	0.000000	0.000000	2032.976740	0.000000	1473.530915	0.000000	0.000000	0.000000
0.597500	-196.998520	1144.866869	-44.747253	0.325477	0.000000	-0.190769	0.000000	-1.383284	0.000000	0.000000	0.000000	0.000000	2025.086379	0.000000	1467.807258	0.000000	0.000000	0.000000
